<svg id="圖層_1" data-name="圖層 1" xmlns="http://www.w3.org/2000/svg" xmlns:xlink="http://www.w3.org/1999/xlink" viewBox="0 0 255.42 243.87"><defs><style>.cls-1{fill:#fff;}.cls-2{fill:#9acfed;}.cls-13,.cls-2{opacity:0.3;}.cls-3{fill:#35ad62;}.cls-4{fill:#2f7f35;}.cls-5{fill:#59b4d8;}.cls-6{fill:#b5d9ea;}.cls-7{fill:#d6d6d6;}.cls-8{fill:#5bb264;}.cls-9{fill:#83cc8a;}.cls-10{fill:#2490b2;}.cls-11{fill:#f6f6f6;}.cls-12{fill:#ededed;}.cls-13{fill:#1d1d1b;}.cls-14{fill:#e8e8e8;}.cls-15{fill:#fadbdf;}.cls-16{fill:#1e8c42;}.cls-17{fill:url(#未命名漸層_41);}.cls-18{fill:none;stroke:#fff;stroke-miterlimit:10;}</style><linearGradient id="未命名漸層_41" x1="2256.24" y1="1091.28" x2="2229.99" y2="1124.36" gradientTransform="matrix(-1, 0, 0, 1, 4390.05, 0)" gradientUnits="userSpaceOnUse"><stop offset="0" stop-color="#268d00" stop-opacity="0.8"/><stop offset="0.99" stop-color="#2688c4" stop-opacity="0"/></linearGradient></defs><title>advantage04</title><path class="cls-1" d="M2178.87,976.21c32.54-11.56,73.39-10.31,100.36,9.61,13.18,9.74,20.47,25.76,26.23,40.61,13.05,33.67,20.07,75.15-3.67,105.9-15.42,20-37,26.73-60.79,30.82-34.24,5.89-69.62,3.57-98.86-17-15.86-11.17-37.55-29.68-43.11-48.86-5.38-18.58-2.54-40.64,5.39-58.1,6-13.15,16.45-19.29,26.14-29C2144.71,996,2159.73,983,2178.87,976.21Z" transform="translate(-2067.32 -953.42)"/><path class="cls-2" d="M2115.77,1011.45c-2.56,17.21,3.55,34.36,6.27,51.15,2.92,18.05,3.45,36.4,6.46,54.44,3.4,20.38,12,49.87,31.9,60.57,21.33,11.5,50.33,2.58,69.93-8.39,24.54-13.74,44.24-35,62.79-55.79,16.36-18.3,33.64-40.68,28.79-66.82-4.66-25.12-27.38-42.67-47.14-56.32-28.1-19.42-63.57-34.54-98.22-33.6C2143.13,957.6,2120.7,978.38,2115.77,1011.45Z" transform="translate(-2067.32 -953.42)"/><polygon class="cls-3" points="123.82 168.65 128.63 176.9 119.01 176.9 123.82 168.65"/><polygon class="cls-3" points="123.82 165.24 128.21 172.77 119.43 172.77 123.82 165.24"/><polygon class="cls-3" points="123.82 162.56 127.42 168.73 120.22 168.73 123.82 162.56"/><polygon class="cls-4" points="123.82 164.5 124.4 179.6 123.24 179.6 123.82 164.5"/><path class="cls-3" d="M2265.08,1104.5c0,2.1,2.44,3.81,5.44,3.81s5.44-1.71,5.44-3.81-2.43-3.81-5.44-3.81S2265.08,1102.39,2265.08,1104.5Z" transform="translate(-2067.32 -953.42)"/><path class="cls-3" d="M2264,1100.53c0,2.62,2.91,4.75,6.5,4.75s6.51-2.13,6.51-4.75-2.91-4.76-6.51-4.76S2264,1097.9,2264,1100.53Z" transform="translate(-2067.32 -953.42)"/><path class="cls-3" d="M2266.74,1096.18c0,1.53,1.69,2.77,3.78,2.77s3.79-1.24,3.79-2.77-1.7-2.76-3.79-2.76S2266.74,1094.66,2266.74,1096.18Z" transform="translate(-2067.32 -953.42)"/><path class="cls-4" d="M2275,1102.46l-4,2-.17-4.4,2.69-2.41-2.71,1.8-.2-5.08-.12,3.22-2.09-1.23,2.06,1.85-.13,3.43-3.93-2,3.89,3.18-.13,3.32-4.08-2.07s3,2.49,4,3.26l-.23,6h1.46l-.29-7.64C2272,1104.92,2275,1102.46,2275,1102.46Z" transform="translate(-2067.32 -953.42)"/><path class="cls-3" d="M2227.77,1078.48a3.4,3.4,0,1,0,3.39-3.06A3.24,3.24,0,0,0,2227.77,1078.48Z" transform="translate(-2067.32 -953.42)"/><path class="cls-3" d="M2225.35,1082.65c0,2.31,2.6,4.18,5.8,4.18s5.8-1.87,5.8-4.18-2.6-4.17-5.8-4.17S2225.35,1080.35,2225.35,1082.65Z" transform="translate(-2067.32 -953.42)"/><path class="cls-4" d="M2236,1081.43l-4.47,1.46-.22-5.63-.12,3.2-2.8-1.67s2.15,2,2.76,2.5l-.11,3.07-4.64-2.35,4.6,3.19-.46,12.07H2232l-.52-13.55Z" transform="translate(-2067.32 -953.42)"/><rect class="cls-5" x="136.72" y="4" width="4.55" height="4.12"/><rect class="cls-6" x="141" y="4" width="2.99" height="4.12"/><rect class="cls-5" x="147.62" y="4" width="4.55" height="4.12"/><rect class="cls-6" x="151.9" y="4" width="2.99" height="4.12"/><rect class="cls-3" x="148.8" y="8.13" width="12.85" height="57.15"/><rect class="cls-4" x="130.47" y="8.13" width="18.84" height="57.15"/><rect class="cls-1" x="132.16" y="10.29" width="4.19" height="3.52"/><rect class="cls-1" x="137.8" y="10.29" width="4.19" height="3.52"/><rect class="cls-1" x="143.44" y="10.29" width="4.19" height="3.52"/><rect class="cls-1" x="132.16" y="15.57" width="4.19" height="3.52"/><rect class="cls-1" x="137.8" y="15.57" width="4.19" height="3.52"/><rect class="cls-1" x="143.44" y="15.57" width="4.19" height="3.52"/><rect class="cls-1" x="132.16" y="20.86" width="4.19" height="3.52"/><rect class="cls-1" x="137.8" y="20.86" width="4.19" height="3.52"/><rect class="cls-1" x="143.44" y="20.86" width="4.19" height="3.52"/><rect class="cls-1" x="132.16" y="26.14" width="4.19" height="3.52"/><rect class="cls-1" x="137.8" y="26.14" width="4.19" height="3.52"/><rect class="cls-1" x="143.44" y="26.14" width="4.19" height="3.52"/><rect class="cls-1" x="132.16" y="31.43" width="4.19" height="3.52"/><rect class="cls-1" x="137.8" y="31.43" width="4.19" height="3.52"/><rect class="cls-1" x="143.44" y="31.43" width="4.19" height="3.52"/><rect class="cls-1" x="132.16" y="36.71" width="4.19" height="3.52"/><rect class="cls-1" x="137.8" y="36.71" width="4.19" height="3.52"/><rect class="cls-1" x="143.44" y="36.71" width="4.19" height="3.52"/><rect class="cls-1" x="132.16" y="42" width="4.19" height="3.52"/><rect class="cls-1" x="137.8" y="42" width="4.19" height="3.52"/><rect class="cls-1" x="143.44" y="42" width="4.19" height="3.52"/><rect class="cls-1" x="132.16" y="47.11" width="4.19" height="3.52"/><rect class="cls-1" x="137.8" y="47.11" width="4.19" height="3.52"/><rect class="cls-1" x="143.44" y="47.11" width="4.19" height="3.52"/><rect class="cls-4" x="133.06" y="52.66" width="13.66" height="12.61"/><rect class="cls-7" x="133.5" y="53" width="6.08" height="12.27"/><rect class="cls-7" x="140.15" y="53" width="6.08" height="12.27"/><circle class="cls-4" cx="155.68" cy="13.33" r="2.24"/><circle class="cls-4" cx="155.68" cy="19.87" r="2.24"/><circle class="cls-4" cx="155.68" cy="26.09" r="2.24"/><path class="cls-5" d="M2257.47,998.66a1.32,1.32,0,0,1-1.32-1.32V977.19a9.13,9.13,0,0,0-9.12-9.12h-24a1.32,1.32,0,0,1,0-2.64h24a11.77,11.77,0,0,1,11.76,11.76v20.15A1.32,1.32,0,0,1,2257.47,998.66Z" transform="translate(-2067.32 -953.42)"/><path class="cls-6" d="M2251.4,1002.22a1.33,1.33,0,0,1-1.32-1.33V980.94a6.34,6.34,0,0,0-6.34-6.33H2223a1.32,1.32,0,0,1,0-2.64h20.74a9,9,0,0,1,9,9v19.95A1.33,1.33,0,0,1,2251.4,1002.22Z" transform="translate(-2067.32 -953.42)"/><path class="cls-1" d="M2245.25,1008.43a1.32,1.32,0,0,1-1.32-1.32V984.58a3.75,3.75,0,0,0-3.75-3.75H2223a1.32,1.32,0,0,1,0-2.64h17.18a6.39,6.39,0,0,1,6.39,6.39v22.53A1.32,1.32,0,0,1,2245.25,1008.43Z" transform="translate(-2067.32 -953.42)"/><rect class="cls-7" x="157.03" y="55.95" width="19.74" height="9.32"/><rect class="cls-6" x="169.01" y="41.22" width="30.15" height="24.05"/><polygon class="cls-8" points="213.87 49.23 205 49.23 206.26 10.38 206.46 4.01 206.59 0 212.28 0 212.41 4.01 212.61 10.38 213.87 49.23"/><rect class="cls-9" x="192.64" y="49.23" width="26.44" height="16.04"/><rect class="cls-3" x="192.64" y="49.23" width="17.96" height="16.04"/><rect class="cls-5" x="169.01" y="41.22" width="19.14" height="24.05"/><rect class="cls-10" x="171.12" y="39.89" width="26.05" height="1.33"/><rect class="cls-1" x="151.38" y="30.55" width="8.37" height="1.76"/><rect class="cls-1" x="151.38" y="34.07" width="8.37" height="1.76"/><rect class="cls-1" x="151.38" y="37.59" width="8.37" height="1.76"/><rect class="cls-1" x="151.38" y="41.11" width="8.37" height="1.76"/><rect class="cls-1" x="151.38" y="44.64" width="8.37" height="1.76"/><rect class="cls-1" x="151.38" y="48.16" width="8.37" height="1.76"/><rect class="cls-1" x="151.38" y="51.68" width="8.37" height="1.76"/><rect class="cls-11" x="169.01" y="43.76" width="19.14" height="4.24"/><rect class="cls-5" x="172.04" y="43.76" width="0.86" height="4.24"/><rect class="cls-5" x="176.11" y="43.76" width="0.86" height="4.24"/><rect class="cls-5" x="180.18" y="43.76" width="0.86" height="4.24"/><rect class="cls-5" x="184.25" y="43.76" width="0.86" height="4.24"/><rect class="cls-11" x="169.01" y="50.7" width="19.14" height="4.24"/><rect class="cls-5" x="172.04" y="50.7" width="0.86" height="4.24"/><rect class="cls-5" x="176.11" y="50.7" width="0.86" height="4.24"/><rect class="cls-5" x="180.18" y="50.7" width="0.86" height="4.24"/><rect class="cls-5" x="184.25" y="50.7" width="0.86" height="4.24"/><rect class="cls-11" x="169.01" y="57.63" width="19.14" height="4.24"/><rect class="cls-5" x="172.04" y="57.63" width="0.86" height="4.24"/><rect class="cls-5" x="176.11" y="57.63" width="0.86" height="4.24"/><rect class="cls-5" x="180.18" y="57.63" width="0.86" height="4.24"/><rect class="cls-5" x="184.25" y="57.63" width="0.86" height="4.24"/><polygon class="cls-4" points="212.61 10.38 206.26 10.38 206.46 4.01 212.41 4.01 212.61 10.38"/><rect class="cls-12" x="195.41" y="51.68" width="12.33" height="1.56"/><rect class="cls-12" x="212.92" y="51.68" width="4.18" height="1.56"/><rect class="cls-12" x="212.92" y="55.16" width="4.18" height="1.56"/><rect class="cls-12" x="212.92" y="58.65" width="4.18" height="1.56"/><rect class="cls-12" x="195.41" y="55.16" width="12.33" height="1.56"/><rect class="cls-12" x="195.41" y="58.65" width="12.33" height="1.56"/><polygon class="cls-13" points="209.4 0 206.59 0 206.46 4.01 206.26 10.38 205 49.23 209.4 49.23 209.4 0"/><polygon class="cls-14" points="147.68 65.27 139.97 72.28 95.01 94.54 114.78 99.58 144.55 79.17 158.23 65.27 147.68 65.27"/><path class="cls-15" d="M2163.44,1025.26c-.47,6.31,4,15.42,10.3,15.89s12.08-7.86,12.56-14.17a11.46,11.46,0,1,0-22.86-1.72Z" transform="translate(-2067.32 -953.42)"/><path class="cls-15" d="M2230.54,1011c.05,0,1.95-1,1.95-1l1.84,3,9.31-5.23,3.09,3.45-13.14,9.92-2.86-3.59,1.49-2-.61-2.23Z" transform="translate(-2067.32 -953.42)"/><polygon class="cls-16" points="95.72 243.87 74.6 243.87 76.52 192.63 70.76 134.35 95.72 136.45 89.17 192.87 81.91 238.24 95.72 243.87"/><path class="cls-1" d="M2230.55,1016.09c-5.77,5.4-26.38,20.28-34,22.5l-15.87,4.64-17.53,1.9-28.4,30.51,28.51,18.7,21.72-38.69,18.5-8c7.61-3.3,26.36-20.08,31.52-26.58Z" transform="translate(-2067.32 -953.42)"/><path class="cls-15" d="M2184.67,1022.11a34.85,34.85,0,0,1,3.68-.28c.89,0,2.09.32,2,1.2a1.7,1.7,0,0,1-.75,1,8.12,8.12,0,0,1-3.83,2,4.1,4.1,0,0,1-3.37-1.18,3,3,0,0,1-.89-3A7.12,7.12,0,0,0,2184.67,1022.11Z" transform="translate(-2067.32 -953.42)"/><path class="cls-3" d="M2172.41,1040.91c-5.59-1.54-9.41-9.79-9-15.65a11.47,11.47,0,0,1,12.29-10.57c.38,0,.73.14,1.1.2a6.17,6.17,0,0,1,.18,2.74,10.8,10.8,0,0,1-5.89,7.44S2171.14,1039.07,2172.41,1040.91Z" transform="translate(-2067.32 -953.42)"/><path class="cls-15" d="M2169.57,1026.35a4.39,4.39,0,0,0-2.64.93c-2.45,1.83-1,5.69,1.57,6.62a6.58,6.58,0,0,0,2.57.34,3.58,3.58,0,0,0,2.13-.65,2.7,2.7,0,0,0,.89-1.93,5.46,5.46,0,0,0-.4-2.14A5.06,5.06,0,0,0,2169.57,1026.35Z" transform="translate(-2067.32 -953.42)"/><circle class="cls-3" cx="93.36" cy="66.33" r="6.8"/><path class="cls-17" d="M2142.82,1135.75l-1-10.54-2.72-27.46,23.46-3.41-4,35.22C2154,1131.57,2146,1134.45,2142.82,1135.75Z" transform="translate(-2067.32 -953.42)"/><polygon class="cls-8" points="0 177.47 5.6 161.81 42.1 163.47 67.54 121.99 95.98 140.92 47.63 177.85 8.56 168.89 0 177.47"/><line class="cls-18" x1="195.19" y1="101.8" x2="190.23" y2="101.8"/><line class="cls-18" x1="192.71" y1="99.32" x2="192.71" y2="104.27"/><line class="cls-18" x1="128.54" y1="121.99" x2="123.59" y2="121.99"/><line class="cls-18" x1="126.06" y1="119.52" x2="126.06" y2="124.47"/><line class="cls-18" x1="155.92" y1="189.11" x2="150.96" y2="189.11"/><line class="cls-18" x1="153.44" y1="186.63" x2="153.44" y2="191.58"/><line class="cls-18" x1="78.19" y1="82.42" x2="73.24" y2="82.42"/><line class="cls-18" x1="75.71" y1="79.95" x2="75.71" y2="84.9"/></svg>