<svg xmlns="http://www.w3.org/2000/svg" xmlns:xlink="http://www.w3.org/1999/xlink" viewBox="0 0 392.59 318.89"><defs><style>.cls-1{isolation:isolate;}.cls-2,.cls-3{opacity:0.8;mix-blend-mode:multiply;}.cls-2{fill:url(#未命名漸層_2);}.cls-3{fill:url(#未命名漸層_2-2);}.cls-4{fill:#fff;}.cls-5{fill:#87c8f4;opacity:0.3;}.cls-6{fill:#308736;}.cls-7{fill:#5bb264;}.cls-25,.cls-8{fill:none;stroke:#fff;}.cls-8{stroke-linecap:round;stroke-linejoin:round;}.cls-9{fill:#bed3bf;}.cls-10{fill:#1e8c42;}.cls-11{fill:#35ad62;}.cls-12{fill:#d4e8d5;}.cls-13{fill:#fadbdf;}.cls-14{fill:#2490b2;}.cls-15{fill:#59b4d8;}.cls-16{fill:#bcbcbc;}.cls-17{fill:#2f7f35;}.cls-18{fill:#83cc8a;}.cls-19{fill:url(#未命名漸層_41);}.cls-20{fill:#b5d9ea;}.cls-21{fill:#e5456c;}.cls-22{fill:#f96783;}.cls-23{fill:#8c8c8c;}.cls-24{fill:#d6d6d6;}.cls-25{stroke-miterlimit:10;}</style><linearGradient id="未命名漸層_2" x1="1564.85" y1="898.42" x2="1529.51" y2="944.09" gradientTransform="matrix(0.96, 0.29, -0.29, 0.96, 329.89, -404.04)" gradientUnits="userSpaceOnUse"><stop offset="0" stop-color="#9fdac9"/><stop offset="0.32" stop-color="#9cd9ca"/><stop offset="0.55" stop-color="#93d4cd"/><stop offset="0.75" stop-color="#83cdd2"/><stop offset="0.93" stop-color="#6dc2d9"/><stop offset="1" stop-color="#62bddd"/></linearGradient><linearGradient id="未命名漸層_2-2" x1="1326.21" y1="1006.73" x2="1373.88" y2="1045.07" gradientTransform="matrix(1, 0, 0, 1, 0, 0)" xlink:href="#未命名漸層_2"/><linearGradient id="未命名漸層_41" x1="1684.93" y1="1149.8" x2="1670.69" y2="1167.75" gradientUnits="userSpaceOnUse"><stop offset="0" stop-color="#268d00" stop-opacity="0.8"/><stop offset="0.99" stop-color="#2688c4" stop-opacity="0"/></linearGradient></defs><title>advantage02</title><g class="cls-1"><g id="圖層_1" data-name="圖層 1"><path class="cls-2" d="M1565.48,926c-1.7-9-7-8.56-9.72-7.24,2.11-1.76,3.7-3.12,4.58-3.89,9.42,3.09,9.36-8.79,9.36-8.79-11.23-2-11,6-10.12,8.13-.62.54-1.54,1.32-2.71,2.31,3.67-5.59-4.34-10.28-4.34-10.28-7.24,8.41-.61,12.14,1.67,12.51-2.25,1.85-5,4-8,6.37,2.9-5.45-4.6-12.11-4.6-12.11-10.18,8.11-2.37,14.54.16,15.45-2.62,1.92-5.36,3.86-8.14,5.71,5.33-7.57-6.81-16.13-6.81-16.13-10.77,10.83-1.3,17.71,2.38,19a88.91,88.91,0,0,1-9.79,5.32.49.49,0,0,0-.25.66.49.49,0,0,0,.31.27.47.47,0,0,0,.35,0c6.69-3,14.33-8,21.2-13,.1,11.59,14.09,6.4,14.09,6.4-1.8-9.72-7.61-9.84-11.19-8.54,3.84-2.86,7.33-5.64,10.15-8C1554.19,930.32,1565.48,926,1565.48,926Z" transform="translate(-1327.8 -884.12)"/><path class="cls-3" d="M1378.66,1044.24a66.45,66.45,0,0,1-16.39-10.06,2.68,2.68,0,0,0,.4.15c12.08-8.84.45-18.06.17-17.84-8,6.11-6.67,11.4-4.19,14.61-2.69-2.41-5.21-4.9-7.51-7.33,10.84-5.07,3.21-14.39,2.95-14.27-7.33,3.46-7.41,7.83-6.07,10.86-2.28-2.57-4.26-5-5.91-7.1,9-3.47,3.57-11.43,3.35-11.34-5.64,2-6.67,5.05-6.26,7.5-.66-.91-1.2-1.67-1.59-2.24,2.33-9.73-7.5-9.6-7.55-9.37-2.27,9.47,4.28,10.2,6.7,9.9.66,1,1.74,2.48,3.19,4.38-6.4-3.36-9.71,4.13-9.54,4.26,7.15,5.61,10.52.5,11.38-1.89,2.09,2.65,4.69,5.75,7.69,9-8.18-5.18-12.43,4.4-12.23,4.56,9.3,7.29,13.22-.64,13.75-3a114.19,114.19,0,0,0,10.26,9.57c-11.59-3.32-13.64,9.74-13.33,9.87,13.21,5.63,16-4,16.13-7.66a63.74,63.74,0,0,0,14.23,8.33l.18,0a.5.5,0,0,0,.19-1Z" transform="translate(-1327.8 -884.12)"/><path class="cls-4" d="M1388.4,1101.74c35.27,41.82,126.64,54.63,178.67,14.92,28-21.34,60.82-45.09,76.85-75.92,14.22-27.34,10.57-56.83-10.14-79.85-16.74-18.61-43.37-28.33-68.21-27.56-14.67.45-30.08,5.84-44.39.29-12.75-4.94-20.77-17.24-33.21-22.7C1438.11,889,1386.49,926,1369.66,973.28,1369.66,973.28,1344.78,1050,1388.4,1101.74Z" transform="translate(-1327.8 -884.12)"/><path class="cls-5" d="M1581.3,1130.21c23.43-11.41,43-31.94,57.06-53.09,23.1-34.89,29.72-79.57,6-116-6.23-9.56-15.15-17.67-26-21.25-29.16-9.63-58.77,16.33-87.45,4.14-18.54-7.88-24.41-31.26-39-45.17-9.91-9.46-23.73-14.17-37.42-14.67s-27.27,2.91-40,8c-13.37,5.33-26.75,13.24-33.13,26.15-7.71,15.58-3.4,34.08-4.06,51.46-1.11,29-16.49,56.15-17,85.19-.49,25.32,11.2,51.87,31.83,67.3,17,12.72,34,13.5,54.15,8.91,17.28-3.93,34.91-3.56,52.26-.24,16.22,3.11,31.45,9.24,48.22,8.45A87.87,87.87,0,0,0,1581.3,1130.21Z" transform="translate(-1327.8 -884.12)"/><rect class="cls-6" x="1393.45" y="1031.02" width="66.46" height="60.11" transform="translate(-962.2 1603.64) rotate(-90)"/><rect class="cls-7" x="1393.45" y="1027.61" width="66.46" height="60.11" transform="translate(-958.79 1600.23) rotate(-90)"/><polyline class="cls-8" points="80.52 176.2 99.14 159.15 117.24 176.2"/><polyline class="cls-8" points="85.88 176.2 85.88 191.36 94.84 191.36 94.84 181.74 102.85 181.74 102.85 191.36 111.89 191.36 111.89 176.2"/><polyline class="cls-8" points="105.6 161.78 112.09 161.78 112.09 167.61"/><polygon class="cls-9" points="118.79 217.24 119.87 226.43 126.34 243.23 120.43 245.05 115.87 227.53 115.28 217.64 118.79 217.24"/><polygon class="cls-10" points="120.1 316.63 130.69 316.63 129.73 290.92 132.62 261.68 120.1 262.73 123.38 291.04 127.03 313.81 120.1 316.63"/><polygon class="cls-11" points="135.91 261.35 138.18 286.26 153.43 306.52 151.61 316.08 147.06 316.08 149.79 314.03 150.25 307.89 135.68 291.5 122.47 262.13 135.91 261.35"/><path class="cls-12" d="M1436.32,1105.28l3,1a31.79,31.79,0,0,0,6.47,10l6,5.78,7.33,5,5.44,20.2-17,1.61-.56-22.26-6.33-7.9a23.88,23.88,0,0,1-5.24-11.2Z" transform="translate(-1327.8 -884.12)"/><polygon class="cls-13" points="112.03 223.32 107.84 224.81 105.14 210.62 105.95 209.41 112.03 223.32"/><polygon class="cls-13" points="115.28 217.64 115.01 210.19 117.98 210.19 118.79 217.24 115.28 217.64"/><path class="cls-13" d="M1436.28,1094.31a22.2,22.2,0,0,1-1.94-1.45c0-.13-1.36-3.31-1.36-3.31l-1.89.27.54,5.22,2.61.63Z" transform="translate(-1327.8 -884.12)"/><path class="cls-13" d="M1463.62,1118.09c-1.27,2.91-5.38,5.9-8.29,4.63s-3.52-6.32-2.25-9.23a5.75,5.75,0,1,1,10.54,4.6Z" transform="translate(-1327.8 -884.12)"/><path class="cls-13" d="M1455,1111.72a17.21,17.21,0,0,0-1.57-1c-.39-.22-1-.35-1.17.06a.79.79,0,0,0,.09.63,4,4,0,0,0,1.22,1.8,2.06,2.06,0,0,0,1.77.26,1.48,1.48,0,0,0,1.1-1.12A3.82,3.82,0,0,1,1455,1111.72Z" transform="translate(-1327.8 -884.12)"/><path class="cls-11" d="M1456,1122.93c2.85.63,6.47-2.14,7.65-4.84a5.75,5.75,0,0,0-3-7.57,4.68,4.68,0,0,0-.53-.17,3,3,0,0,0-.73,1.17,5.44,5.44,0,0,0,.87,4.68S1457,1122.41,1456,1122.93Z" transform="translate(-1327.8 -884.12)"/><path class="cls-13" d="M1460.65,1117.13a2.23,2.23,0,0,1,.95,1c.66,1.38-.91,2.74-2.25,2.56a3.22,3.22,0,0,1-1.22-.45,1.8,1.8,0,0,1-.79-.78,1.37,1.37,0,0,1,.06-1.07,2.66,2.66,0,0,1,.68-.85A2.54,2.54,0,0,1,1460.65,1117.13Z" transform="translate(-1327.8 -884.12)"/><path class="cls-4" d="M1457.61,1112.61a1.72,1.72,0,1,1,.91-2.59A2,2,0,0,1,1457.61,1112.61Z" transform="translate(-1327.8 -884.12)"/><rect class="cls-14" x="204.33" y="137.3" width="66.51" height="51.35"/><rect class="cls-15" x="204.33" y="133.94" width="66.51" height="51.35"/><path class="cls-8" d="M1576.7,1048.62c-2.81,1.55-3.18.78-3.62-.37-4-10.51-8.95-9.37-8.95-9.37v-1.66c.52.21,4.51,0,6.14-1.25,2.5-3,6.72-2.59,9.37-2a17.39,17.39,0,0,0-7.29-6.07,8.7,8.7,0,0,1-13.39-.23,17.26,17.26,0,0,0-6.6,27.34,2.3,2.3,0,1,1,2.55,2.39,17.17,17.17,0,0,0,10.47,3.54q.69,0,1.35-.06a6.68,6.68,0,0,1,5.59-3.47,5.76,5.76,0,0,1,2.62.64,17.23,17.23,0,0,0,7.69-14.36v-.14a30.27,30.27,0,0,1-3.56,4.65C1577.44,1050.25,1577.3,1048.77,1576.7,1048.62Zm-20.63-1.63a3.38,3.38,0,1,1,3-3.36A3.21,3.21,0,0,1,1556.07,1047Zm9.59,2.41a2.28,2.28,0,1,1,2.28-2.28A2.28,2.28,0,0,1,1565.66,1049.4Z" transform="translate(-1327.8 -884.12)"/><ellipse class="cls-8" cx="228.27" cy="159.51" rx="3.03" ry="3.37"/><circle class="cls-8" cx="237.86" cy="163" r="2.27"/><path class="cls-8" d="M1557,1055.17a2.3,2.3,0,0,0-4.59-.11,17.48,17.48,0,0,0,2.55,2.39A2.3,2.3,0,0,0,1557,1055.17Z" transform="translate(-1327.8 -884.12)"/><path class="cls-8" d="M1565.75,1031a8.72,8.72,0,0,0,6.6-3,17.37,17.37,0,0,0-13.39-.23A8.74,8.74,0,0,0,1565.75,1031Z" transform="translate(-1327.8 -884.12)"/><path class="cls-8" d="M1566.73,1060.93a17.1,17.1,0,0,0,8.21-2.83,5.76,5.76,0,0,0-2.62-.64A6.68,6.68,0,0,0,1566.73,1060.93Z" transform="translate(-1327.8 -884.12)"/><path class="cls-8" d="M1570.27,1036c-1.63,1.25-5.62,1.46-6.14,1.25v1.66s5-1.14,8.95,9.37c.44,1.15.81,1.92,3.62.37.6.15.74,1.63,2.37-.37a30.27,30.27,0,0,0,3.56-4.65,17.23,17.23,0,0,0-3-9.58C1577,1033.38,1572.77,1033,1570.27,1036Z" transform="translate(-1327.8 -884.12)"/><polygon class="cls-12" points="227.48 248.36 224.71 219.89 221.15 189.44 223.92 189.05 230.25 217.91 240.13 218.7 250.41 189.44 253.18 189.84 245.67 221.08 246.06 247.57 227.48 248.36"/><path class="cls-13" d="M1553.3,1072a2.37,2.37,0,1,1-2.37-2.37A2.37,2.37,0,0,1,1553.3,1072Z" transform="translate(-1327.8 -884.12)"/><path class="cls-13" d="M1581,1072.77a2.37,2.37,0,1,1-2.37-2.37A2.37,2.37,0,0,1,1581,1072.77Z" transform="translate(-1327.8 -884.12)"/><path class="cls-11" d="M1567.55,1098.55a.61.61,0,0,0,.07-.1c.15-.21.29-.44.42-.66l0-.09c.1-.19.2-.39.28-.58l.08-.17a5.75,5.75,0,0,0,.23-.66,5.4,5.4,0,0,0,.14-2,5.32,5.32,0,0,0-.35-1.24,5.18,5.18,0,0,0-1.53-2.08,5.65,5.65,0,0,0-.51-.34c-.13-.07-.24-.17-.37-.23a5.43,5.43,0,0,0-1-.38h0a4.8,4.8,0,0,0-1.11-.16h-.25a4.37,4.37,0,0,0-.88.08l-.17,0a4.36,4.36,0,0,0-.93.29l-.06,0a5.05,5.05,0,0,0-2.89,3.31c-.75,2.73.43,7.11,3.16,7.86a4.56,4.56,0,0,0,3.83-1.06h0a8.18,8.18,0,0,0,1.25-1.18l0,0C1567.25,1099,1567.41,1098.75,1567.55,1098.55Z" transform="translate(-1327.8 -884.12)"/><polygon class="cls-16" points="246.06 247.57 243.32 291.24 240.3 291.24 237.73 247.93 235.04 248.04 233.39 292.31 231.06 292.25 227.48 248.36 226.95 242.95 246 243.2 246.06 247.57"/><polygon class="cls-17" points="249.71 293 240.37 293 240.25 290.49 243.35 290.52 249.71 293"/><polygon class="cls-17" points="224.26 293.89 233.39 293.55 233.44 290.76 230.93 290.76 224.26 293.89"/><polygon class="cls-4" points="363.18 275.25 362.13 260.75 363.75 250.07 369.26 218.61 366.6 218.23 360.52 245.98 351.01 246.74 341.13 218.61 338.47 218.99 345.69 249.02 348.23 260.5 347.93 274.49 363.18 275.25"/><path class="cls-13" d="M1677.69,1122.86c0,2.72,2.21,6.48,4.93,6.48s4.92-3.76,4.92-6.48a4.93,4.93,0,1,0-9.85,0Z" transform="translate(-1327.8 -884.12)"/><path class="cls-13" d="M1684.69,1123.53a1.31,1.31,0,0,1,1.15-.53,1,1,0,0,1,.29.1,1,1,0,0,1,.42.68,2,2,0,0,1-.94,1.94,1.49,1.49,0,0,1-.6.24.81.81,0,0,1-.61-.16C1683.78,1125.29,1684.29,1124,1684.69,1123.53Z" transform="translate(-1327.8 -884.12)"/><path class="cls-11" d="M1684.69,1123.26a.49.49,0,0,0,.35.06c.12,0,.18-.17.25-.27a.89.89,0,0,1,1.29,0,1.14,1.14,0,0,1,.14,1.35,1.68,1.68,0,0,1-1.19.76,11,11,0,0,0-.38,3.48l2.35.17a.61.61,0,0,0,.44-.08.62.62,0,0,0,.18-.38,19.33,19.33,0,0,0,.44-4.09,7.34,7.34,0,0,0-.86-3.87c-.82-1.38-4.22-3.64-5.87-2.37C1680,1119.38,1683.42,1122.65,1684.69,1123.26Z" transform="translate(-1327.8 -884.12)"/><path class="cls-11" d="M1680.53,1121.25a5.57,5.57,0,0,1-3.12,2.43,5.07,5.07,0,0,1,.86-4.28c.52-.68,2.37-2.32,3.36-1.94S1681,1120.49,1680.53,1121.25Z" transform="translate(-1327.8 -884.12)"/><polygon class="cls-18" points="362.62 264.96 348.09 264.28 336.9 314.37 331.71 311.21 338.03 318.88 352.92 277.6 352.7 296.32 362.79 309.7 363.44 314.53 363.7 316.58 365.5 316.37 365.83 309.01 358.02 296.3 363.53 275.26 362.62 264.96"/><polygon class="cls-13" points="363.54 232.18 366.69 233.29 369.26 218.61 366.6 218.23 363.54 232.18"/><polygon class="cls-13" points="345.21 230.22 341.52 231.68 338.47 218.99 341.13 218.61 345.21 230.22"/><polygon class="cls-13" points="357.55 246.22 354.82 251.06 353.44 246.54 357.55 246.22"/><path class="cls-13" d="M1665.08,1101.21a2.28,2.28,0,1,0,2.28-2.28A2.28,2.28,0,0,0,1665.08,1101.21Z" transform="translate(-1327.8 -884.12)"/><path class="cls-13" d="M1693.71,1101.63a2.28,2.28,0,1,0,2.28-2.28A2.29,2.29,0,0,0,1693.71,1101.63Z" transform="translate(-1327.8 -884.12)"/><path class="cls-19" d="M1676.63,1173.07l3.51-9.74.33-3.09-4.58-11.84-4.86,21.76C1673.11,1171.27,1675.14,1172.31,1676.63,1173.07Z" transform="translate(-1327.8 -884.12)"/><polygon class="cls-6" points="320.08 220.64 320.04 224.31 366.51 225.08 392.54 208.9 392.59 205.23 320.08 220.64"/><polygon class="cls-6" points="366.51 225.08 320.04 224.31 346.07 208.13 392.54 208.9 366.51 225.08"/><polygon class="cls-4" points="366.56 221.41 320.08 220.64 346.12 204.46 392.59 205.23 366.56 221.41"/><polygon class="cls-11" points="352.43 218.1 347.87 218.1 355.94 213.76 348.74 213.76 365.42 206.86 357.64 211.88 363.4 211.9 352.43 218.1"/><rect class="cls-15" x="68.83" y="80.9" width="80.14" height="46.07"/><rect class="cls-20" x="68.83" y="77.24" width="80.14" height="46.07"/><rect class="cls-4" x="78.16" y="113.04" width="4.33" height="4"/><rect class="cls-4" x="86.33" y="110.03" width="4.33" height="7.02"/><rect class="cls-4" x="94.49" y="107.01" width="4.33" height="10.04"/><rect class="cls-4" x="102.65" y="103.99" width="4.33" height="13.05"/><rect class="cls-4" x="110.81" y="100.97" width="4.33" height="16.07"/><rect class="cls-4" x="118.98" y="97.95" width="4.33" height="19.09"/><rect class="cls-4" x="127.14" y="94.94" width="4.33" height="22.11"/><rect class="cls-4" x="135.3" y="91.92" width="4.33" height="25.12"/><polyline class="cls-8" points="127.89 83.2 131.51 84.33 130.08 87.63"/><line class="cls-8" x1="131.51" y1="84.33" x2="81.49" y2="105.29"/><rect class="cls-21" x="233.04" y="80.91" width="37.8" height="37.8"/><rect class="cls-22" x="233.04" y="77.24" width="37.8" height="37.8"/><path class="cls-4" d="M1579.7,973.67a5.77,5.77,0,0,1,4.37-2.72,6,6,0,0,1,6.44,5.43,9.27,9.27,0,0,1-3.76,8.91,64.69,64.69,0,0,1-6.34,4.16,1.53,1.53,0,0,1-1.24.07,22.79,22.79,0,0,1-8.47-6.36,8.35,8.35,0,0,1-1.55-7.44,5.71,5.71,0,0,1,4.43-4.66A5.48,5.48,0,0,1,1579.7,973.67Z" transform="translate(-1327.8 -884.12)"/><rect class="cls-23" x="178.8" y="80.91" width="37.8" height="37.8"/><rect class="cls-24" x="178.8" y="77.24" width="37.8" height="37.8"/><circle class="cls-4" cx="197.7" cy="90.4" r="6.01"/><path class="cls-4" d="M1536.32,992.69a10.82,10.82,0,0,0-21.63,0Z" transform="translate(-1327.8 -884.12)"/><line class="cls-25" x1="294.49" y1="125.38" x2="299.69" y2="125.38"/><line class="cls-25" x1="297.09" y1="122.77" x2="297.09" y2="127.98"/><line class="cls-25" y1="176.87" x2="5.21" y2="176.87"/><line class="cls-25" x1="2.6" y1="174.26" x2="2.6" y2="179.47"/><line class="cls-25" x1="181.68" y1="163.28" x2="186.89" y2="163.28"/><line class="cls-25" x1="184.29" y1="160.68" x2="184.29" y2="165.88"/><line class="cls-25" x1="148.97" y1="216.1" x2="154.18" y2="216.1"/><line class="cls-25" x1="151.57" y1="213.5" x2="151.57" y2="218.7"/></g></g></svg>