<svg xmlns="http://www.w3.org/2000/svg" xmlns:xlink="http://www.w3.org/1999/xlink" viewBox="0 0 291.89 240.01"><defs><style>.cls-1{isolation:isolate;}.cls-2,.cls-4{fill:#fff;}.cls-3,.cls-6{fill:#35ad62;}.cls-14,.cls-3{opacity:0.2;}.cls-4{opacity:0.91;mix-blend-mode:screen;}.cls-5{fill:#ccc;}.cls-7{fill:#91c0db;}.cls-19,.cls-8,.cls-9{fill:none;}.cls-19,.cls-8{stroke:#fff;}.cls-8,.cls-9{stroke-linecap:round;stroke-linejoin:round;}.cls-8{stroke-width:0.2px;}.cls-9{stroke:#91c0db;stroke-width:0.4px;}.cls-10,.cls-11{opacity:0.28;}.cls-10,.cls-11,.cls-17,.cls-18{mix-blend-mode:multiply;}.cls-10{fill:url(#未命名漸層_7);}.cls-11{fill:url(#未命名漸層_7-2);}.cls-12{fill:#2f7f35;}.cls-13{fill:#5bb264;}.cls-15{fill:#fadbdf;}.cls-16{fill:#83cc8a;}.cls-17,.cls-18{opacity:0.8;}.cls-17{fill:url(#未命名漸層_42);}.cls-18{fill:url(#未命名漸層_31);}.cls-19{stroke-miterlimit:10;}.cls-20{fill:#f96783;}</style><linearGradient id="未命名漸層_7" x1="122.5" y1="139.77" x2="122.5" y2="108.23" gradientUnits="userSpaceOnUse"><stop offset="0" stop-color="#fff"/><stop offset="1" stop-color="#4dbbd9"/></linearGradient><linearGradient id="未命名漸層_7-2" x1="-1614.18" y1="699.2" x2="-1614.18" y2="670" gradientTransform="matrix(-1, 0, 0, 1, -1430.72, -551.45)" xlink:href="#未命名漸層_7"/><linearGradient id="未命名漸層_42" x1="2670.5" y1="750.7" x2="2698.91" y2="737.45" gradientTransform="translate(2787.62 -2039.94) rotate(76.63)" gradientUnits="userSpaceOnUse"><stop offset="0" stop-color="#9fdac9"/><stop offset="0.32" stop-color="#9cd9ca"/><stop offset="0.55" stop-color="#93d4cd"/><stop offset="0.75" stop-color="#83cdd2"/><stop offset="0.93" stop-color="#6dc2d9"/><stop offset="1" stop-color="#62bddd"/></linearGradient><linearGradient id="未命名漸層_31" x1="0.94" y1="54.27" x2="19.23" y2="45.75" gradientTransform="matrix(1, 0, 0, 1, 0, 0)" xlink:href="#未命名漸層_42"/></defs><title>a01</title><g class="cls-1"><g id="圖層_1" data-name="圖層 1"><path class="cls-2" d="M2541.25,551.81c58.51-4,85.65,25.71,100.68,65.52s37.29,53.51,21.92,99.33-70.89,51.88-92.59,46.52-44.2-19.24-71.22-29.66c-40.19-15.51-50.12-35.91-50.93-56-1.13-28.43,13.86-31.6,18.68-62.77C2473.56,577.39,2495.48,554.92,2541.25,551.81Z" transform="translate(-2408.49 -551.45)"/><path class="cls-3" d="M2462,602.3c-28.7,46.08-5.22,104.55,26,134.66,27.85,26.87,76.72,45.52,103.67,28.34,19.69-12.56,14.78-36,44.67-59.67,19.42-15.37,29-11.4,35.33-22.33,15.11-26.11-16.33-88.85-67.33-112.34C2561.74,551.33,2492.61,553.21,2462,602.3Z" transform="translate(-2408.49 -551.45)"/><polygon class="cls-4" points="147.38 111.23 90.9 111.23 97.62 75.47 154.1 75.47 147.38 111.23"/><polygon class="cls-5" points="145.65 85.04 128.9 85.04 129.04 84.33 145.79 84.33 145.65 85.04"/><polygon class="cls-5" points="145.11 87.96 128.36 87.96 128.49 87.25 145.24 87.25 145.11 87.96"/><polygon class="cls-5" points="144.56 90.88 127.81 90.88 127.94 90.17 144.69 90.17 144.56 90.88"/><polygon class="cls-5" points="144.01 93.8 127.26 93.8 127.39 93.09 144.14 93.09 144.01 93.8"/><polygon class="cls-5" points="143.46 96.72 126.71 96.72 126.84 96.01 143.59 96.01 143.46 96.72"/><polygon class="cls-5" points="142.22 103.34 136.65 103.34 136.79 102.63 142.35 102.63 142.22 103.34"/><path class="cls-6" d="M2509.08,629a1,1,0,0,1-.94.8.65.65,0,0,1-.65-.8,1,1,0,0,1,1-.79A.63.63,0,0,1,2509.08,629Z" transform="translate(-2408.49 -551.45)"/><path class="cls-6" d="M2512.64,629a1,1,0,0,1-.94.8.65.65,0,0,1-.65-.8,1,1,0,0,1,.95-.79A.63.63,0,0,1,2512.64,629Z" transform="translate(-2408.49 -551.45)"/><path class="cls-6" d="M2516.21,629a1,1,0,0,1-.95.8.65.65,0,0,1-.65-.8,1,1,0,0,1,.95-.79A.64.64,0,0,1,2516.21,629Z" transform="translate(-2408.49 -551.45)"/><polygon class="cls-7" points="111.65 106.89 99.86 106.89 103.4 87.23 115.2 87.23 111.65 106.89"/><polygon class="cls-7" points="119.57 106.89 111.65 106.89 114.25 92.49 122.17 92.49 119.57 106.89"/><polygon class="cls-7" points="113.89 87.23 104.71 87.23 104.95 85.89 114.13 85.89 113.89 87.23"/><polygon class="cls-7" points="120.84 92.49 115.57 92.49 115.82 91.15 121.09 91.15 120.84 92.49"/><polygon class="cls-8" points="107.76 106.89 103.75 106.89 104.71 101.56 108.72 101.56 107.76 106.89"/><line class="cls-8" x1="106.71" y1="101.56" x2="105.75" y2="106.89"/><ellipse class="cls-7" cx="2518.65" cy="633.94" rx="2.41" ry="2.01" transform="translate(-2176.75 1313.56) rotate(-42.42)"/><line class="cls-9" x1="108.55" y1="83.88" x2="108.14" y2="86.1"/><line class="cls-9" x1="111.24" y1="83.97" x2="110.84" y2="86.16"/><polyline class="cls-8" points="105.75 88.57 105.5 89.94 104.14 89.94"/><polyline class="cls-8" points="116.26 93.75 116.09 94.72 115.12 94.72"/><polyline class="cls-8" points="118.44 93.75 118.26 94.72 117.29 94.72"/><polyline class="cls-8" points="120.61 93.75 120.43 94.72 119.46 94.72"/><polyline class="cls-8" points="115.87 95.94 115.69 96.91 114.72 96.91"/><polyline class="cls-8" points="118.04 95.94 117.87 96.91 116.89 96.91"/><polyline class="cls-8" points="120.21 95.94 120.04 96.91 119.06 96.91"/><polyline class="cls-8" points="115.47 98.13 115.3 99.09 114.33 99.09"/><polyline class="cls-8" points="117.64 98.13 117.47 99.09 116.5 99.09"/><polyline class="cls-8" points="119.82 98.13 119.64 99.09 118.67 99.09"/><polyline class="cls-8" points="115.08 100.31 114.9 101.28 113.93 101.28"/><polyline class="cls-8" points="117.25 100.31 117.08 101.28 116.1 101.28"/><polyline class="cls-8" points="119.42 100.31 119.25 101.28 118.28 101.28"/><polyline class="cls-8" points="114.68 102.5 114.51 103.47 113.54 103.47"/><polyline class="cls-8" points="116.86 102.5 116.68 103.47 115.71 103.47"/><polyline class="cls-8" points="119.03 102.5 118.85 103.47 117.88 103.47"/><polyline class="cls-8" points="114.29 104.69 114.11 105.66 113.14 105.66"/><polyline class="cls-8" points="116.46 104.69 116.29 105.66 115.31 105.66"/><polyline class="cls-8" points="118.63 104.69 118.46 105.66 117.49 105.66"/><polyline class="cls-8" points="108.38 88.57 108.13 89.94 106.76 89.94"/><polyline class="cls-8" points="111 88.57 110.76 89.94 109.39 89.94"/><polyline class="cls-8" points="113.63 88.57 113.39 89.94 112.02 89.94"/><polyline class="cls-8" points="105.28 91.2 105.03 92.57 103.66 92.57"/><polyline class="cls-8" points="107.9 91.2 107.66 92.57 106.29 92.57"/><polyline class="cls-8" points="110.53 91.2 110.28 92.57 108.92 92.57"/><polyline class="cls-8" points="113.16 91.2 112.91 92.57 111.54 92.57"/><polyline class="cls-8" points="104.8 93.83 104.56 95.19 103.19 95.19"/><polyline class="cls-8" points="107.43 93.83 107.18 95.19 105.81 95.19"/><polyline class="cls-8" points="110.06 93.83 109.81 95.19 108.44 95.19"/><polyline class="cls-8" points="112.68 93.83 112.44 95.19 111.07 95.19"/><polyline class="cls-8" points="104.33 96.46 104.08 97.83 102.71 97.83"/><polyline class="cls-8" points="106.95 96.46 106.71 97.83 105.34 97.83"/><polyline class="cls-8" points="109.58 96.46 109.34 97.83 107.97 97.83"/><polyline class="cls-8" points="112.21 96.46 111.96 97.83 110.59 97.83"/><polyline class="cls-8" points="103.85 99.09 103.61 100.45 102.24 100.45"/><polyline class="cls-8" points="106.48 99.09 106.23 100.45 104.87 100.45"/><polyline class="cls-8" points="109.11 99.09 108.86 100.45 107.49 100.45"/><polyline class="cls-8" points="111.73 99.09 111.49 100.45 110.12 100.45"/><polyline class="cls-8" points="103.38 101.72 103.13 103.08 101.76 103.08"/><polyline class="cls-8" points="111.26 101.72 111.01 103.08 109.65 103.08"/><polyline class="cls-8" points="102.9 104.35 102.66 105.71 101.29 105.71"/><polyline class="cls-8" points="110.79 104.35 110.54 105.71 109.17 105.71"/><polygon class="cls-10" points="147.38 111.38 90.9 111.38 97.62 147.14 154.1 147.14 147.38 111.38"/><polygon class="cls-11" points="160.43 121.47 212.71 121.47 206.49 154.57 154.21 154.57 160.43 121.47"/><path class="cls-12" d="M2494.17,774.76l-.66,11h19.76s-8.06-5.37-11.66-7.14l-.41-3.9Z" transform="translate(-2408.49 -551.45)"/><path class="cls-13" d="M2500.28,687l1.33,90.76h-7.81s-3.05-35.22-4.38-45.93L2481.91,687Z" transform="translate(-2408.49 -551.45)"/><path class="cls-14" d="M2500.28,687h-18.37l7.51,44.83c-1.47,3.59-1.39,10.21-.66,17.33l12.65,15.44Z" transform="translate(-2408.49 -551.45)"/><path class="cls-12" d="M2473.31,776.17l-3,11h21.56s-9.12-5.37-12.73-7.14l.66-3.9Z" transform="translate(-2408.49 -551.45)"/><path class="cls-13" d="M2500.83,685.86l-7.68,45.48-12.9,46.38h-7.75s6.12-32.6,10.48-49.15l-6.31-42.71Z" transform="translate(-2408.49 -551.45)"/><polygon class="cls-14" points="91.82 137.5 92.34 134.4 68.18 134.4 68.72 138.09 91.87 141.05 91.82 137.5"/><path class="cls-15" d="M2513.27,654.42s4.79-7.75,12.3-9.5l-3,3.54s1.4,3.68-.37,5.52a7.71,7.71,0,0,1-4.63,2l-2,2.21Z" transform="translate(-2408.49 -551.45)"/><path class="cls-2" d="M2501.66,678c6.26-6.57,15.29-20.23,15.29-20.23l-3.23-4.93-12.89,8.68-6.55-13.4-2.65,16.49Z" transform="translate(-2408.49 -551.45)"/><path class="cls-14" d="M2500.83,661.49l-6.55-13.4-2.65,16.49s4.27,11.12,9.2,12.66a1.51,1.51,0,0,0,.37.06l5.94-20.06Z" transform="translate(-2408.49 -551.45)"/><path class="cls-2" d="M2502.06,680.72c-.65-4.16-1.56-12.2-2.77-20.15s-5.15-17.63-5.15-17.63l-1.62-4.78a48.2,48.2,0,0,0-13.51-1.25l-2,10.6c-.88,5.51-2.47,22.42-3.13,28.77a64,64,0,0,0-.12,12.56s17.5,1.56,29.41,0C2502.93,686.65,2502.06,680.72,2502.06,680.72Z" transform="translate(-2408.49 -551.45)"/><path class="cls-2" d="M2490.54,687l2.61-5.52s-3.52-3-6.48-5.37l-1.8-1.64,2.9-10.11c1.39-4,6.27-17.83-.74-19.32-5.19-1.1-8.36,4-10.91,10.8-1.8,4.82-5.78,16.92-6,22.75Z" transform="translate(-2408.49 -551.45)"/><path class="cls-16" d="M2613.15,785.32l-21.2,1.09,14.52-7s-3.44-33.8-4-45.42c-.66-12.63,2.16-51.61,2.16-51.61l2.6-3.69,15.46,1.42c-2.65,9.94-11.27,55.43-11.27,55.43Z" transform="translate(-2408.49 -551.45)"/><path class="cls-14" d="M2613.15,785.32l-21.2,1.09,14.52-7s-2.65-25.09-3.82-39.42L2616,689.17l2.89,7.88c-3.42,16.72-7.55,38.53-7.55,38.53Z" transform="translate(-2408.49 -551.45)"/><path class="cls-16" d="M2633.47,682.42l-4.2,50.15c2.25,10.67,5.24,34.82,5.6,39.89.28,4,.94,10.68.94,10.68-3.38,2.79-10.51,8.32-10.51,8.32s5.29-11.75,5.25-12.23c-.28-3.27-9-35.26-10.53-46.66s-5.89-55.29-5.89-55.29l19.34,5.14" transform="translate(-2408.49 -551.45)"/><path class="cls-14" d="M2631,677.28h-16.91s.07.77.21,2.11l-7.15-.66-2.6,3.69s-.08,1.13-.21,3.05c9.36,2,22.76.65,28.85-.19.07-.86.17-2,.24-2.86A18.73,18.73,0,0,0,2631,677.28Z" transform="translate(-2408.49 -551.45)"/><path class="cls-6" d="M2615.46,607c7.18-.19,8.06,6.3,9.17,13.14s1.88,9.28,4.42,12.48.88,5.85,3.2,9.05,10.71,14.8.55,19.21-16.45.44-19.43-5.52-4.2-9.71-7.84-12.58-3.76-8.62-1.44-12.59,1.77-7.18,1-11.81S2607.29,607.26,2615.46,607Z" transform="translate(-2408.49 -551.45)"/><path class="cls-14" d="M2620.12,643.34c.27-6.75-2.31-8.33-4.64-13.83s-8.69-8.88-8.69-8.88a6.93,6.93,0,0,1-1.28.44c.49,3.27.36,6.11-1.42,9.16-2.32,4-2.21,9.72,1.44,12.59a17.85,17.85,0,0,1,4.88,6.48C2615.62,649.74,2619.92,648.46,2620.12,643.34Z" transform="translate(-2408.49 -551.45)"/><path class="cls-15" d="M2607.25,638.12s-2.56,1-4,6.48-5.81,23.7-5.81,23.7l-13.25,17a17.13,17.13,0,0,0-4.79,1.17,8.17,8.17,0,0,0-2.87,2.73,23.75,23.75,0,0,0,3.24-.74l-3.24,5.15h6.19a23.08,23.08,0,0,0,5-6.4l16.49-16.78s3.24-16.64,4.56-20.39S2607.25,638.12,2607.25,638.12Z" transform="translate(-2408.49 -551.45)"/><path class="cls-14" d="M2607.25,638.12s-2.56,1-4,6.48-5.81,23.7-5.81,23.7l-4.7,6,11.47-3.9s3.24-16.64,4.56-20.39S2607.25,638.12,2607.25,638.12Z" transform="translate(-2408.49 -551.45)"/><path class="cls-15" d="M2621.15,627.31c-4.11-3.66-3.53-11.92-3.53-11.92s-4,4.19-4.64,4.19.5-1.82.5-1.82a25.61,25.61,0,0,1-6.69,2.87,21,21,0,0,0,1.6,7c1.26,2.38,3.5,4.43,5.31,4.43C2615.68,632.08,2620.43,631.16,2621.15,627.31Z" transform="translate(-2408.49 -551.45)"/><path class="cls-2" d="M2612.54,636.32v-2.59h9.5s-.28,2.37.55,2.92,5.58,1.6,6.74,3.76,2.41,11.87.87,20-1.43,9.66-.16,12.47,3.21,6.68,3.43,9.5c0,0-18.5,3.31-28.88,0,0,0,4.81-11.76,4.22-17.65s-4.35-7.88-4.93-11.34,2.28-8.46,2.28-8.46-.15-5.67,1.09-6.85C2608.27,637.15,2612.54,636.32,2612.54,636.32Z" transform="translate(-2408.49 -551.45)"/><path class="cls-14" d="M2633.47,682.42c-.22-2.82-2.16-6.68-3.43-9.5-1.17-2.6-1.35-4.08-.16-10.73l-24.83-6h0c1.34,2.16,3.34,4.37,3.76,8.54.59,5.89-4.22,17.65-4.22,17.65C2615,685.73,2633.47,682.42,2633.47,682.42Z" transform="translate(-2408.49 -551.45)"/><path class="cls-15" d="M2628.44,639.38s-3,1.69-2.81,7.48,1.95,17.62,1.95,17.62l-19.84-.94s-5.13-3.37-7.23-3.87-7-.27-7.12.83,5.08,2.82,5.08,2.82l2.31,2.37s-3.86-1.21-4-.61,4.37,3.87,10.44,2.32c0,0,25.35,4.45,27,3.31,2-1.38-1-18.32-1.38-20.86S2631.33,641.36,2628.44,639.38Z" transform="translate(-2408.49 -551.45)"/><polygon class="cls-4" points="160.34 121.47 212.71 121.47 206.48 88.31 154.11 88.31 160.34 121.47"/><polygon class="cls-5" points="161.94 97.19 177.47 97.19 177.35 96.53 161.82 96.53 161.94 97.19"/><polygon class="cls-5" points="162.45 99.9 177.98 99.9 177.86 99.24 162.33 99.24 162.45 99.9"/><polygon class="cls-5" points="162.96 102.61 178.49 102.61 178.36 101.95 162.83 101.95 162.96 102.61"/><polygon class="cls-5" points="163.47 105.31 179 105.31 178.87 104.65 163.34 104.65 163.47 105.31"/><polygon class="cls-5" points="163.98 108.02 179.51 108.02 179.38 107.36 163.85 107.36 163.98 108.02"/><polygon class="cls-5" points="165.13 114.16 170.29 114.16 170.16 113.5 165.01 113.5 165.13 114.16"/><path class="cls-6" d="M2612.21,641.71a.94.94,0,0,0,.88.74.59.59,0,0,0,.6-.74.94.94,0,0,0-.88-.74A.59.59,0,0,0,2612.21,641.71Z" transform="translate(-2408.49 -551.45)"/><path class="cls-6" d="M2608.91,641.71a.94.94,0,0,0,.88.74.59.59,0,0,0,.6-.74.94.94,0,0,0-.88-.74A.59.59,0,0,0,2608.91,641.71Z" transform="translate(-2408.49 -551.45)"/><path class="cls-6" d="M2605.61,641.71a.93.93,0,0,0,.88.74.6.6,0,0,0,.6-.74.94.94,0,0,0-.88-.74A.59.59,0,0,0,2605.61,641.71Z" transform="translate(-2408.49 -551.45)"/><polygon class="cls-7" points="193.47 117.45 204.4 117.45 201.12 99.22 190.18 99.22 193.47 117.45"/><polygon class="cls-7" points="186.12 117.45 193.47 117.45 191.06 104.1 183.71 104.1 186.12 117.45"/><polygon class="cls-7" points="191.4 99.22 199.9 99.22 199.68 97.98 191.17 97.98 191.4 99.22"/><polygon class="cls-7" points="184.94 104.1 189.83 104.1 189.61 102.85 184.72 102.85 184.94 104.1"/><polygon class="cls-8" points="197.08 117.45 200.8 117.45 199.91 112.51 196.19 112.51 197.08 117.45"/><line class="cls-8" x1="198.05" y1="112.51" x2="198.94" y2="117.45"/><ellipse class="cls-7" cx="2603.35" cy="646.28" rx="1.86" ry="2.23" transform="translate(-2038.41 1580.63) rotate(-47.58)"/><line class="cls-9" x1="196.39" y1="96.35" x2="196.7" y2="98.06"/><line class="cls-9" x1="193.87" y1="96.26" x2="194.22" y2="98.12"/><polyline class="cls-8" points="198.94 100.47 199.17 101.73 200.44 101.73"/><polyline class="cls-8" points="189.19 105.27 189.35 106.16 190.25 106.16"/><polyline class="cls-8" points="187.18 105.27 187.34 106.16 188.24 106.16"/><polyline class="cls-8" points="185.16 105.27 185.33 106.16 186.23 106.16"/><polyline class="cls-8" points="189.56 107.29 189.72 108.19 190.62 108.19"/><polyline class="cls-8" points="187.54 107.29 187.71 108.19 188.61 108.19"/><polyline class="cls-8" points="185.53 107.29 185.69 108.19 186.59 108.19"/><polyline class="cls-8" points="189.92 109.32 190.09 110.22 190.99 110.22"/><polyline class="cls-8" points="187.91 109.32 188.07 110.22 188.97 110.22"/><polyline class="cls-8" points="185.9 109.32 186.06 110.22 186.96 110.22"/><polyline class="cls-8" points="190.29 111.35 190.45 112.25 191.35 112.25"/><polyline class="cls-8" points="188.28 111.35 188.44 112.25 189.34 112.25"/><polyline class="cls-8" points="186.26 111.35 186.42 112.25 187.33 112.25"/><polyline class="cls-8" points="190.66 113.38 190.82 114.28 191.72 114.28"/><polyline class="cls-8" points="188.64 113.38 188.8 114.28 189.71 114.28"/><polyline class="cls-8" points="186.63 113.38 186.79 114.28 187.69 114.28"/><polyline class="cls-8" points="191.02 115.41 191.18 116.31 192.09 116.31"/><polyline class="cls-8" points="189.01 115.41 189.17 116.31 190.07 116.31"/><polyline class="cls-8" points="186.99 115.41 187.16 116.31 188.06 116.31"/><polyline class="cls-8" points="196.5 100.47 196.73 101.73 198 101.73"/><polyline class="cls-8" points="194.07 100.47 194.29 101.73 195.56 101.73"/><polyline class="cls-8" points="191.63 100.47 191.86 101.73 193.13 101.73"/><polyline class="cls-8" points="199.38 102.91 199.61 104.17 200.88 104.17"/><polyline class="cls-8" points="196.94 102.91 197.17 104.17 198.44 104.17"/><polyline class="cls-8" points="194.51 102.91 194.73 104.17 196 104.17"/><polyline class="cls-8" points="192.07 102.91 192.3 104.17 193.57 104.17"/><polyline class="cls-8" points="199.82 105.34 200.05 106.61 201.31 106.61"/><polyline class="cls-8" points="197.38 105.34 197.61 106.61 198.88 106.61"/><polyline class="cls-8" points="194.95 105.34 195.17 106.61 196.44 106.61"/><polyline class="cls-8" points="192.51 105.34 192.74 106.61 194.01 106.61"/><polyline class="cls-8" points="200.26 107.78 200.49 109.04 201.75 109.04"/><polyline class="cls-8" points="197.82 107.78 198.05 109.04 199.32 109.04"/><polyline class="cls-8" points="195.39 107.78 195.61 109.04 196.88 109.04"/><polyline class="cls-8" points="192.95 107.78 193.18 109.04 194.45 109.04"/><polyline class="cls-8" points="200.7 110.22 200.93 111.48 202.19 111.48"/><polyline class="cls-8" points="198.26 110.22 198.49 111.48 199.76 111.48"/><polyline class="cls-8" points="195.83 110.22 196.05 111.48 197.32 111.48"/><polyline class="cls-8" points="193.39 110.22 193.62 111.48 194.89 111.48"/><polyline class="cls-8" points="201.14 112.66 201.37 113.92 202.63 113.92"/><polyline class="cls-8" points="193.83 112.66 194.06 113.92 195.33 113.92"/><polyline class="cls-8" points="201.58 115.09 201.81 116.36 203.07 116.36"/><polyline class="cls-8" points="194.27 115.09 194.5 116.36 195.77 116.36"/><path class="cls-15" d="M2475,619.84c-2.08,5.53,5.56,15.36,11,15.36,7.13,0,9-5,9.41-8,.89-5.84.35-11.25-5.72-14.15C2484.3,610.54,2477.07,614.3,2475,619.84Z" transform="translate(-2408.49 -551.45)"/><path class="cls-15" d="M2494.84,622.59a30.13,30.13,0,0,1,3.37.71c.8.22,1.79.83,1.49,1.6a1.58,1.58,0,0,1-.95.73,7.57,7.57,0,0,1-4,.82,3.82,3.82,0,0,1-2.71-2,2.78,2.78,0,0,1,0-2.94A6.79,6.79,0,0,0,2494.84,622.59Z" transform="translate(-2408.49 -551.45)"/><path class="cls-6" d="M2495.6,622.71l-.53-3.38s-1.79,1.06-5.43-1.33c0,0-2.43,4.38-4.57,3.83,0,0-.54,2.86-.55,3.35s-.15-1.95-2.17-2a1.87,1.87,0,0,0-1.92,2.63,4.23,4.23,0,0,0,3.65,2.66l-4.69,3.11c-8.13-.17-6.31-12.09-6.31-12.09,1.94-11.68,17-10.35,17-10.35s7.5,0,8.78,4.28C2498.84,613.44,2500.36,621.18,2495.6,622.71Z" transform="translate(-2408.49 -551.45)"/><circle class="cls-17" cx="2684.71" cy="744.07" r="15.67" transform="translate(-1068.66 2632.42) rotate(-76.63)"/><circle class="cls-18" cx="10.09" cy="50.01" r="10.09"/><line class="cls-19" x1="240.98" y1="100.8" x2="246.18" y2="100.8"/><line class="cls-19" x1="243.58" y1="98.19" x2="243.58" y2="103.4"/><line class="cls-19" x1="112.47" y1="154.57" x2="117.68" y2="154.57"/><line class="cls-19" x1="115.08" y1="151.96" x2="115.08" y2="157.17"/><line class="cls-19" x1="162.44" y1="195.22" x2="167.65" y2="195.22"/><line class="cls-19" x1="165.04" y1="192.62" x2="165.04" y2="197.83"/><line class="cls-19" x1="51.22" y1="102.5" x2="56.43" y2="102.5"/><line class="cls-19" x1="53.82" y1="99.9" x2="53.82" y2="105.11"/><path class="cls-20" d="M2488.48,591.38c-1.8-1.74-3.55-3.42-5.27-5.12a1.5,1.5,0,0,0-1.18-.49c-1.7,0-3.41,0-5.11,0a3,3,0,0,1-2.22-.77,2.3,2.3,0,0,1-.71-1.68c0-4.94,0-9.88,0-14.82a2.2,2.2,0,0,1,1.89-2.18,12.74,12.74,0,0,1,1.74-.13q11,0,22.09,0c.91,0,1.9,0,2.48.89a3.15,3.15,0,0,1,.55,1.52c0,4.76,0,9.52.05,14.27a2.68,2.68,0,0,1-2.91,2.91c-1.75,0-3.5,0-5.25,0a1.52,1.52,0,0,0-1,.41c-1.62,1.58-3.2,3.21-4.8,4.82Zm-4.28-18.64a2.78,2.78,0,0,0-3.08-1.32,2.87,2.87,0,0,0-2.23,2.35,4.23,4.23,0,0,0,.77,3.75,11.7,11.7,0,0,0,4.27,3.2.75.75,0,0,0,.62,0,31.41,31.41,0,0,0,3.2-2.09,4.67,4.67,0,0,0,1.89-4.49,3,3,0,0,0-3.24-2.73A2.89,2.89,0,0,0,2484.2,572.74Zm12.1,6.35v-3.24c0-1.1,0-2.2,0-3.3a.64.64,0,0,0-.24-.47c-.14-.05-.49,0-.52.13a1.72,1.72,0,0,1-1.64,1.16c-.14,0-.31.28-.33.45s.22.25.37.32a.89.89,0,0,0,.4,0c1,0,1,0,1,1v3.91Z" transform="translate(-2408.49 -551.45)"/><path class="cls-2" d="M2484.2,572.74a2.89,2.89,0,0,1,2.2-1.37,3,3,0,0,1,3.24,2.73,4.67,4.67,0,0,1-1.89,4.49,31.41,31.41,0,0,1-3.2,2.09.75.75,0,0,1-.62,0,11.7,11.7,0,0,1-4.27-3.2,4.23,4.23,0,0,1-.77-3.75,2.87,2.87,0,0,1,2.23-2.35A2.78,2.78,0,0,1,2484.2,572.74Z" transform="translate(-2408.49 -551.45)"/><path class="cls-2" d="M2496.3,579.09h-1v-3.91c0-1,0-1-1-1a.89.89,0,0,1-.4,0c-.15-.07-.39-.23-.37-.32s.19-.43.33-.45a1.72,1.72,0,0,0,1.64-1.16c0-.1.38-.18.52-.13a.64.64,0,0,1,.24.47c0,1.1,0,2.2,0,3.3Z" transform="translate(-2408.49 -551.45)"/><path class="cls-20" d="M2614.22,587.38c-1.8-1.73-3.55-3.41-5.28-5.11a1.47,1.47,0,0,0-1.17-.49c-1.71,0-3.41,0-5.12,0a3,3,0,0,1-2.21-.77,2.28,2.28,0,0,1-.71-1.68V564.51a2.2,2.2,0,0,1,1.89-2.19,14.4,14.4,0,0,1,1.74-.13c7.36,0,14.72,0,22.09,0,.9,0,1.9,0,2.47.88a3,3,0,0,1,.55,1.52c0,4.76,0,9.52.05,14.28a2.66,2.66,0,0,1-2.9,2.9c-1.75,0-3.51,0-5.26,0a1.56,1.56,0,0,0-1,.4c-1.61,1.59-3.2,3.22-4.79,4.83C2614.45,587.18,2614.3,587.31,2614.22,587.38Zm-4.28-18.63a2.77,2.77,0,0,0-3.09-1.32,2.89,2.89,0,0,0-2.23,2.35,4.24,4.24,0,0,0,.78,3.75,11.4,11.4,0,0,0,4.27,3.19.71.71,0,0,0,.62,0,32,32,0,0,0,3.2-2.1,4.65,4.65,0,0,0,1.88-4.48,3,3,0,0,0-3.24-2.73A2.87,2.87,0,0,0,2609.94,568.75ZM2622,575.1c0-1.11,0-2.18,0-3.25s0-2.19,0-3.29a.63.63,0,0,0-.25-.47c-.13-.06-.48,0-.51.12a1.75,1.75,0,0,1-1.65,1.17c-.14,0-.3.28-.33.44s.23.26.38.33a1.06,1.06,0,0,0,.4,0c1,0,1,0,1,1v3.92Z" transform="translate(-2408.49 -551.45)"/><path class="cls-2" d="M2609.94,568.75a2.87,2.87,0,0,1,2.19-1.37,3,3,0,0,1,3.24,2.73,4.65,4.65,0,0,1-1.88,4.48,32,32,0,0,1-3.2,2.1.71.71,0,0,1-.62,0,11.4,11.4,0,0,1-4.27-3.19,4.24,4.24,0,0,1-.78-3.75,2.89,2.89,0,0,1,2.23-2.35A2.77,2.77,0,0,1,2609.94,568.75Z" transform="translate(-2408.49 -551.45)"/><path class="cls-2" d="M2622,575.1h-1v-3.92c0-1,0-1-1-1a1.06,1.06,0,0,1-.4,0c-.15-.07-.39-.24-.38-.33s.19-.42.33-.44a1.75,1.75,0,0,0,1.65-1.17c0-.09.38-.18.51-.12a.63.63,0,0,1,.25.47c0,1.1,0,2.2,0,3.29S2622,574,2622,575.1Z" transform="translate(-2408.49 -551.45)"/></g></g></svg>