<svg id="圖層_1" data-name="圖層 1" xmlns="http://www.w3.org/2000/svg" xmlns:xlink="http://www.w3.org/1999/xlink" viewBox="0 0 361.56 283"><defs><style>.cls-1{fill:#fff;}.cls-2,.cls-8{fill:#35ad62;}.cls-12,.cls-2{opacity:0.2;}.cls-3{fill:#5bb264;}.cls-4{fill:#b5d9ea;}.cls-5{fill:#59b4d8;}.cls-6{fill:#83cc8a;}.cls-7{fill:#2f7f35;}.cls-9{fill:#f6f6f6;}.cls-10{fill:#d6d6d6;}.cls-11{fill:#d4e8d5;}.cls-12{fill:#1d1d1b;}.cls-13{fill:#fadbdf;}.cls-14{fill:#ffcfd3;}.cls-15{fill:url(#未命名漸層_43);}.cls-16{fill:url(#未命名漸層_43-2);}.cls-17{fill:none;stroke:#fff;stroke-miterlimit:10;}</style><linearGradient id="未命名漸層_43" x1="1673.73" y1="896.47" x2="1673.73" y2="1002.85" gradientTransform="matrix(-1, 0, 0, 1, 1823.7, -941.18)" gradientUnits="userSpaceOnUse"><stop offset="0" stop-color="#83cc8a" stop-opacity="0.8"/><stop offset="0.99" stop-color="#2688c4" stop-opacity="0"/></linearGradient><linearGradient id="未命名漸層_43-2" x1="1606.98" y1="896.47" x2="1606.98" y2="1002.85" xlink:href="#未命名漸層_43"/></defs><title>advantage03</title><path class="cls-1" d="M1930.91,1130.85a99.75,99.75,0,0,1-23.31-47.74c-8.46-45.1,8.06-99.23,47.36-124a82.07,82.07,0,0,1,32.14-11.85c35.69-5.12,94.8.94,115.57,36.77,11,19,8.56,44.4,13.92,65.39,5.6,21.9,13.6,43.69,14.71,66.52,1.45,29.63-14,56-41.93,65.28-19.23,6.38-40.11,4.54-59.94.62C1993.86,1174.78,1955.35,1158.92,1930.91,1130.85Z" transform="translate(-1868.41 -941.18)"/><path class="cls-2" d="M2080.54,997.29c14.34,10.1,31.37,16.94,45.15,27.29,12,9,17.52,28,17.41,42.85-.14,19-10,36.09-19.63,51-29.74,46.37-89.95,76.7-144.76,60-26.4-8-50.57-24.77-68.21-47.69-13.59-17.66-24.91-39.11-27-62.17-2.51-27.52,11.61-47.07,23.21-69.64,11.24-21.89,21.54-33,44.73-38.8,27.48-6.85,52.71-11.56,79.5,2.54C2048.6,972.05,2064,985.65,2080.54,997.29Z" transform="translate(-1868.41 -941.18)"/><path class="cls-3" d="M1882.63,1112.05c0,2.51-2.9,4.54-6.48,4.54s-6.47-2-6.47-4.54,2.9-4.53,6.47-4.53S1882.63,1109.55,1882.63,1112.05Z" transform="translate(-1868.41 -941.18)"/><path class="cls-3" d="M1883.89,1107.32c0,3.13-3.46,5.67-7.74,5.67s-7.74-2.54-7.74-5.67,3.47-5.66,7.74-5.66S1883.89,1104.2,1883.89,1107.32Z" transform="translate(-1868.41 -941.18)"/><path class="cls-3" d="M1880.66,1102.16c0,1.82-2,3.29-4.51,3.29s-4.5-1.47-4.5-3.29,2-3.3,4.5-3.3S1880.66,1100.34,1880.66,1102.16Z" transform="translate(-1868.41 -941.18)"/><path class="cls-1" d="M1870.79,1109.63l4.76,2.33.2-5.24-3.2-2.86,3.23,2.13.23-6,.15,3.84,2.49-1.47-2.46,2.2.16,4.09,4.68-2.37-4.63,3.79.15,4,4.86-2.46s-3.56,3-4.8,3.88l.27,7.08h-1.74l.36-9.1C1874.37,1112.55,1870.79,1109.63,1870.79,1109.63Z" transform="translate(-1868.41 -941.18)"/><polygon class="cls-4" points="231.22 181.3 211.22 181.3 211.22 143.78 231.22 133.29 231.22 181.3"/><rect class="cls-1" x="215.32" y="145.64" width="13.54" height="1.82"/><rect class="cls-1" x="215.32" y="150.43" width="13.54" height="1.82"/><rect class="cls-1" x="215.32" y="155.21" width="13.54" height="1.82"/><rect class="cls-1" x="215.32" y="160" width="13.54" height="1.82"/><rect class="cls-5" x="231.22" y="133.29" width="7.74" height="48.01"/><polygon class="cls-6" points="199.54 181.3 160.75 181.3 160.75 106.45 199.54 85.53 199.54 181.3"/><rect class="cls-1" x="165.37" y="107.81" width="5.68" height="6.36"/><rect class="cls-1" x="173.32" y="107.81" width="5.68" height="6.36"/><rect class="cls-1" x="181.28" y="107.81" width="5.68" height="6.36"/><rect class="cls-1" x="189.24" y="107.81" width="5.68" height="6.36"/><rect class="cls-1" x="165.37" y="116.56" width="5.68" height="6.36"/><rect class="cls-1" x="173.32" y="116.56" width="5.68" height="6.36"/><rect class="cls-1" x="181.28" y="116.56" width="5.68" height="6.36"/><rect class="cls-1" x="189.24" y="116.56" width="5.68" height="6.36"/><rect class="cls-1" x="165.37" y="125.3" width="5.68" height="6.36"/><rect class="cls-1" x="173.32" y="125.3" width="5.68" height="6.36"/><rect class="cls-1" x="181.28" y="125.3" width="5.68" height="6.36"/><rect class="cls-1" x="189.24" y="125.3" width="5.68" height="6.36"/><rect class="cls-1" x="165.37" y="134.05" width="5.68" height="6.36"/><rect class="cls-1" x="173.32" y="134.05" width="5.68" height="6.36"/><rect class="cls-1" x="181.28" y="134.05" width="5.68" height="6.36"/><rect class="cls-1" x="189.24" y="134.05" width="5.68" height="6.36"/><rect class="cls-1" x="165.37" y="142.79" width="5.68" height="6.36"/><rect class="cls-1" x="173.32" y="142.79" width="5.68" height="6.36"/><rect class="cls-1" x="181.28" y="142.79" width="5.68" height="6.36"/><rect class="cls-1" x="189.24" y="142.79" width="5.68" height="6.36"/><rect class="cls-1" x="165.37" y="151.54" width="5.68" height="6.36"/><rect class="cls-1" x="173.32" y="151.54" width="5.68" height="6.36"/><rect class="cls-1" x="181.28" y="151.54" width="5.68" height="6.36"/><rect class="cls-1" x="189.24" y="151.54" width="5.68" height="6.36"/><rect class="cls-1" x="165.37" y="160.28" width="5.68" height="6.36"/><rect class="cls-1" x="173.32" y="160.28" width="5.68" height="6.36"/><rect class="cls-1" x="181.28" y="160.28" width="5.68" height="6.36"/><rect class="cls-1" x="189.24" y="160.28" width="5.68" height="6.36"/><rect class="cls-1" x="165.37" y="169.03" width="5.68" height="6.36"/><rect class="cls-1" x="173.32" y="169.03" width="5.68" height="6.36"/><rect class="cls-1" x="181.28" y="169.03" width="5.68" height="6.36"/><rect class="cls-1" x="189.24" y="169.03" width="5.68" height="6.36"/><rect class="cls-7" x="199.54" y="85.53" width="13.34" height="95.77"/><rect class="cls-8" x="90.22" y="102.41" width="20.91" height="78.89"/><rect class="cls-6" x="111.13" y="102.41" width="44.9" height="78.89"/><rect class="cls-5" x="46.85" y="142.56" width="31.74" height="38.74"/><rect class="cls-4" x="78.59" y="142.56" width="64.42" height="38.74"/><rect class="cls-8" x="20.01" y="161.93" width="12.4" height="19.37"/><rect class="cls-6" x="32.41" y="161.93" width="26.63" height="19.37"/><polygon class="cls-3" points="63.42 66.7 54.67 66.7 52.22 142.56 65.87 142.56 63.42 66.7"/><polygon class="cls-6" points="35.22 113.31 29.61 113.31 28.04 161.93 36.79 161.93 35.22 113.31"/><polygon class="cls-3" points="82.97 66.7 74.22 66.7 71.76 142.56 85.42 142.56 82.97 66.7"/><rect class="cls-9" x="84.25" y="147.05" width="6.83" height="4.38"/><rect class="cls-9" x="92.83" y="147.05" width="6.83" height="4.38"/><rect class="cls-9" x="67.57" y="147.05" width="6.83" height="4.38"/><rect class="cls-9" x="97.61" y="108.47" width="4.08" height="3.98"/><rect class="cls-9" x="97.61" y="121.68" width="4.08" height="3.98"/><rect class="cls-9" x="97.61" y="134.9" width="4.08" height="3.98"/><rect class="cls-9" x="59.09" y="147.05" width="6.83" height="4.38"/><rect class="cls-9" x="50.61" y="147.05" width="6.83" height="4.38"/><rect class="cls-1" x="113.92" y="108" width="6.66" height="5.3"/><rect class="cls-1" x="122.39" y="108" width="6.66" height="5.3"/><rect class="cls-1" x="130.85" y="108" width="6.66" height="5.3"/><rect class="cls-1" x="139.32" y="108" width="6.66" height="5.3"/><rect class="cls-1" x="147.78" y="108" width="6.66" height="5.3"/><rect class="cls-1" x="113.92" y="121.03" width="6.66" height="5.3"/><rect class="cls-1" x="122.39" y="121.03" width="6.66" height="5.3"/><rect class="cls-1" x="130.85" y="121.03" width="6.66" height="5.3"/><rect class="cls-1" x="139.32" y="121.03" width="6.66" height="5.3"/><rect class="cls-1" x="147.78" y="121.03" width="6.66" height="5.3"/><rect class="cls-1" x="113.92" y="134.05" width="6.66" height="5.3"/><rect class="cls-1" x="122.39" y="134.05" width="6.66" height="5.3"/><rect class="cls-1" x="130.85" y="134.05" width="6.66" height="5.3"/><rect class="cls-1" x="139.32" y="134.05" width="6.66" height="5.3"/><rect class="cls-1" x="147.78" y="134.05" width="6.66" height="5.3"/><rect class="cls-9" x="67.57" y="153.53" width="6.83" height="4.38"/><rect class="cls-9" x="67.57" y="159.74" width="6.83" height="4.38"/><rect class="cls-9" x="23.54" y="164.29" width="5.33" height="4.38"/><rect class="cls-9" x="35.24" y="164.78" width="5.1" height="2.98"/><rect class="cls-9" x="43.39" y="164.78" width="5.1" height="2.98"/><rect class="cls-9" x="51.54" y="164.78" width="5.1" height="2.98"/><rect class="cls-9" x="35.24" y="170.13" width="5.1" height="2.98"/><rect class="cls-9" x="43.39" y="170.13" width="5.1" height="2.98"/><rect class="cls-9" x="51.54" y="170.13" width="5.1" height="2.98"/><rect class="cls-9" x="35.24" y="175.47" width="5.1" height="2.98"/><rect class="cls-9" x="43.39" y="175.47" width="5.1" height="2.98"/><rect class="cls-9" x="51.54" y="175.47" width="5.1" height="2.98"/><rect class="cls-9" x="23.54" y="172.96" width="5.33" height="4.38"/><rect class="cls-9" x="59.09" y="153.53" width="6.83" height="4.38"/><rect class="cls-9" x="50.61" y="153.53" width="6.83" height="4.38"/><rect class="cls-9" x="103.43" y="147.05" width="6.83" height="4.38"/><rect class="cls-9" x="112" y="147.05" width="6.83" height="4.38"/><rect class="cls-9" x="122.6" y="147.05" width="6.83" height="4.38"/><rect class="cls-9" x="131.18" y="147.05" width="6.83" height="4.38"/><rect class="cls-9" x="84.25" y="153.53" width="6.83" height="4.38"/><rect class="cls-9" x="92.83" y="153.53" width="6.83" height="4.38"/><rect class="cls-9" x="103.43" y="153.53" width="6.83" height="4.38"/><rect class="cls-9" x="112" y="153.53" width="6.83" height="4.38"/><rect class="cls-9" x="122.6" y="153.53" width="6.83" height="4.38"/><rect class="cls-9" x="131.18" y="153.53" width="6.83" height="4.38"/><rect class="cls-9" x="84.25" y="160" width="6.83" height="4.38"/><rect class="cls-9" x="92.83" y="160" width="6.83" height="4.38"/><rect class="cls-9" x="103.43" y="160" width="6.83" height="4.38"/><rect class="cls-9" x="112" y="160" width="6.83" height="4.38"/><rect class="cls-9" x="122.6" y="160" width="6.83" height="4.38"/><rect class="cls-9" x="131.18" y="160" width="6.83" height="4.38"/><rect class="cls-9" x="84.25" y="166.48" width="6.83" height="4.38"/><rect class="cls-9" x="92.83" y="166.48" width="6.83" height="4.38"/><rect class="cls-9" x="103.43" y="166.48" width="6.83" height="4.38"/><rect class="cls-9" x="112" y="166.48" width="6.83" height="4.38"/><rect class="cls-9" x="122.6" y="166.48" width="6.83" height="4.38"/><rect class="cls-9" x="131.18" y="166.48" width="6.83" height="4.38"/><rect class="cls-9" x="84.25" y="172.96" width="6.83" height="4.38"/><rect class="cls-9" x="92.83" y="172.96" width="6.83" height="4.38"/><rect class="cls-9" x="103.43" y="172.96" width="6.83" height="4.38"/><rect class="cls-9" x="112" y="172.96" width="6.83" height="4.38"/><rect class="cls-9" x="122.6" y="172.96" width="6.83" height="4.38"/><rect class="cls-9" x="131.18" y="172.96" width="6.83" height="4.38"/><rect class="cls-5" x="60.56" y="166.78" width="16.24" height="14.52"/><rect class="cls-10" x="61.58" y="167.65" width="6.77" height="13.65"/><rect class="cls-10" x="68.98" y="167.65" width="6.77" height="13.65"/><rect class="cls-11" x="143.01" y="153.53" width="17.74" height="27.77"/><polygon class="cls-12" points="59.23 66.7 54.67 66.7 52.22 142.56 59.23 142.56 59.23 66.7"/><polygon class="cls-12" points="78.77 66.7 74.22 66.7 71.76 142.56 78.77 142.56 78.77 66.7"/><polygon class="cls-12" points="32.34 113.31 29.61 113.31 28.04 161.93 32.34 161.93 32.34 113.31"/><rect class="cls-7" x="52.22" y="92.14" width="13.65" height="3.5"/><rect class="cls-7" x="51.17" y="117.53" width="15.76" height="3.5"/><rect class="cls-7" x="71.76" y="92.14" width="13.65" height="3.5"/><rect class="cls-7" x="70.71" y="117.53" width="15.75" height="3.5"/><polygon class="cls-1" points="207.11 167.61 214.13 95.46 223.15 18.3 216.13 17.29 200.1 90.45 175.04 92.45 148.99 18.3 141.97 19.3 161.01 98.46 160.01 165.6 207.11 167.61"/><path class="cls-13" d="M2066.61,1010.21c1.89,6.92-1.1,18-8,19.91s-15.14-6.14-17-13a13,13,0,1,1,25-6.86Z" transform="translate(-1868.41 -941.18)"/><path class="cls-8" d="M2057.36,1006.22c1.42-.39,3.4-1.36,4.15-2.69a3.47,3.47,0,0,0,.15-.36,12.93,12.93,0,0,0-20.09,13.9,20.54,20.54,0,0,0,11,12.47,21.81,21.81,0,0,0-.79-4.13q-2.14-8.19-4.78-16.26A70.75,70.75,0,0,0,2057.36,1006.22Z" transform="translate(-1868.41 -941.18)"/><path class="cls-14" d="M2049.28,1016.79a3.43,3.43,0,0,0-3.28-.53,2,2,0,0,0-.67.44,2.54,2.54,0,0,0-.61,2,5.24,5.24,0,0,0,3.75,4.28,3.76,3.76,0,0,0,1.69.18,2.16,2.16,0,0,0,1.45-.83C2052.82,1020.63,2050.63,1017.77,2049.28,1016.79Z" transform="translate(-1868.41 -941.18)"/><polygon class="cls-8" points="160.01 165.6 166.97 276.27 174.62 276.27 181.12 166.5 187.96 166.79 192.14 278.98 198.05 278.84 207.11 167.61 208.44 153.91 160.18 154.53 160.01 165.6"/><polygon class="cls-7" points="150.74 280.74 175.39 280.74 174.62 276.27 166.97 276.27 150.74 280.74"/><polygon class="cls-7" points="215.26 283 192.14 282.12 192.1 277.9 198.13 277.77 215.26 283"/><path class="cls-8" d="M2054.2,1019.59c4.21.46,7.56-3.79,11.76-4.32a1.46,1.46,0,0,1,.78.06,1.57,1.57,0,0,1,.65.78l1.6,3.11a13.34,13.34,0,0,1,1.33,3.31,11.48,11.48,0,0,1-.13,4.25,11.3,11.3,0,0,1-.91,3.25,8,8,0,0,1-4.51,3.83,13.76,13.76,0,0,1-6,.63,11,11,0,0,1-4-1,7.48,7.48,0,0,1-3.91-7.61,8.57,8.57,0,0,0,.26-2.24,5.2,5.2,0,0,0-.81-2c-.41-.73-3.19-4.37-1-4.39.66,0,1.62,1.12,2.19,1.46A7,7,0,0,0,2054.2,1019.59Z" transform="translate(-1868.41 -941.18)"/><polygon class="cls-15" points="157.97 43.86 147.88 43.86 141.97 19.3 148.99 18.3 157.97 43.86"/><polygon class="cls-16" points="216.13 17.29 223.15 18.3 220.16 43.86 210.31 43.86 216.13 17.29"/><path class="cls-13" d="M2082,955.46a6,6,0,1,0,6-6A6,6,0,0,0,2082,955.46Z" transform="translate(-1868.41 -941.18)"/><path class="cls-13" d="M2008.27,957.47a6,6,0,1,0,6-6A6,6,0,0,0,2008.27,957.47Z" transform="translate(-1868.41 -941.18)"/><line class="cls-17" x1="98.38" y1="62.82" x2="102.96" y2="62.82"/><line class="cls-17" x1="100.67" y1="60.54" x2="100.67" y2="65.11"/><line class="cls-17" x1="228.93" y1="92.14" x2="233.51" y2="92.14"/><line class="cls-17" x1="231.22" y1="89.85" x2="231.22" y2="94.43"/><line class="cls-17" x1="140.21" y1="196.32" x2="144.78" y2="196.32"/><line class="cls-17" x1="142.5" y1="194.04" x2="142.5" y2="198.61"/><line class="cls-17" x1="72.98" y1="214.2" x2="77.56" y2="214.2"/><line class="cls-17" x1="75.27" y1="211.91" x2="75.27" y2="216.49"/><path class="cls-4" d="M2173.35,973.49c4,2.12,7.19,1.45,9.24-1.78a7.26,7.26,0,0,0-1.85-9.69c-6-4.89-15.61-1.43-17.58,6.33-2.57,10.1,7.19,19.38,17.78,16.33a29.06,29.06,0,0,0,11-6.43c3.32-3,5.87-6.55,8.67-10a39.32,39.32,0,0,1,4.37-4.66c3.75-3.34,8.18-4.64,13.11-5.1,2.27-.21,4.56-.3,6.84-.36-7.15-2.35-14.27-2.13-20.42,2.43-4.26,3.15-7.54,7.58-11.54,11.11-3.5,3.1-7.1,6.36-11.22,8.42a10.86,10.86,0,0,1-14-4.38,8.83,8.83,0,0,1,.91-10.14c2.38-2.63,5.29-3.68,8.77-2.41,3.28,1.19,4.9,3.8,4.11,6.57-.89,3.13-3.38,4.45-7,3.75A8.33,8.33,0,0,0,2173.35,973.49Z" transform="translate(-1868.41 -941.18)"/><path class="cls-4" d="M2188.48,952.66c3.52,1.31,5.58.44,6.88-2.11,1.46-2.87.62-5.35-1.73-7.35a8.75,8.75,0,0,0-10.77-.34,10.57,10.57,0,0,0-3.39,12.09,12,12,0,0,0,15.53,6.61,33.73,33.73,0,0,0,6.91-3.68,28.48,28.48,0,0,1,11.14-4.43,25.88,25.88,0,0,1,6-.28,44.2,44.2,0,0,1,5.65.64,13.13,13.13,0,0,1,2.47.6,24.75,24.75,0,0,0-23-1.43c-.55.24-1.1.5-1.64.78-2.78,1.42-5.41,3.2-8.3,4.27-5.56,2.05-10.78-.81-11.9-6.16a6.68,6.68,0,0,1,5.13-7.88c3.15-.61,6.37,1.18,6.68,3.88C2194.51,951.4,2192.38,952.62,2188.48,952.66Z" transform="translate(-1868.41 -941.18)"/><path class="cls-4" d="M2178.06,995.35c6.77,1.64,12.54-.42,17.18-5,3.53-3.47,6.39-7.64,9.51-11.52,2.5-3.12,4.77-6.44,7.45-9.38,4.68-5.12,10.41-7.64,17.77-5.84-3-2.22-6.81-2.72-11-1.64-5.46,1.41-9.6,4.79-13,9.06-2.72,3.41-5.12,7.08-7.63,10.66C2193.34,988.83,2187.76,995.07,2178.06,995.35Z" transform="translate(-1868.41 -941.18)"/></svg>