<svg id="圖層_1" data-name="圖層 1" xmlns="http://www.w3.org/2000/svg" viewBox="0 0 42.39 63.45"><defs><style>.cls-1{fill:none;stroke-width:3px;}.cls-1,.cls-2{stroke:#3fa3ca;stroke-linecap:round;stroke-linejoin:round;}.cls-2{fill:#3fa3ca;}</style></defs><title>icon_step08</title><path class="cls-1" d="M633.33,265.21a19.69,19.69,0,0,0-13.16,34.35,17.34,17.34,0,0,1,5.74,10.37c.29,1.33,2,1.91,7.42,1.91s7.12-.58,7.42-1.91a17.3,17.3,0,0,1,5.73-10.37,19.69,19.69,0,0,0-13.15-34.35Z" transform="translate(-612.13 -263.71)"/><line class="cls-1" x1="14.67" y1="52.76" x2="27.72" y2="52.76"/><line class="cls-1" x1="14.67" y1="57.68" x2="27.72" y2="57.68"/><line class="cls-1" x1="18.07" y1="61.95" x2="24.32" y2="61.95"/><polygon class="cls-2" points="20.23 14.79 24.56 14.79 20.53 21.09 27.38 21.09 17.31 31.12 20.5 23.84 15.01 23.8 20.23 14.79"/></svg>