<svg id="圖層_1" data-name="圖層 1" xmlns="http://www.w3.org/2000/svg" viewBox="0 0 40.66 52.78"><defs><style>.cls-1{fill:none;stroke:#fff;stroke-linecap:round;stroke-linejoin:round;stroke-width:4.5px;}</style></defs><title>icon_banner</title><path class="cls-1" d="M163.49,385a18.1,18.1,0,0,0-15.26,27.85l13.86,19.36a1.68,1.68,0,0,0,1.4,1.06h0a1.64,1.64,0,0,0,1.4-1.06l13.8-19.36a17.76,17.76,0,0,0,2.85-9.6A18.19,18.19,0,0,0,163.49,385Zm0,26a7.92,7.92,0,1,1,7.91-7.92A7.89,7.89,0,0,1,163.49,411Z" transform="translate(-143.13 -382.72)"/></svg>