<svg id="圖層_1" data-name="圖層 1" xmlns="http://www.w3.org/2000/svg" viewBox="0 0 210.02 216.68"><defs><style>.cls-1{fill:none;stroke:#fff;stroke-linecap:round;stroke-linejoin:round;stroke-width:4.3px;}</style></defs><title>statistics03</title><path class="cls-1" d="M678.88,161.78a56.8,56.8,0,1,1-113.6,0c0-61.31,56.64-117.25,56.64-117.25S678.88,99.94,678.88,161.78Z" transform="translate(-563.13 -42.38)"/><line class="cls-1" x1="58.95" y1="42.25" x2="58.95" y2="214.53"/><polyline class="cls-1" points="40.37 70.48 58.79 87.89 76.78 70.48"/><polyline class="cls-1" points="27.18 106.8 58.58 137.76 90.5 106.8"/><path class="cls-1" d="M678.88,157.22c37-27.29,92.12-26.94,92.12-26.94s.91,66.09-35.46,102.46a47.25,47.25,0,0,1-79.92-25.12" transform="translate(-563.13 -42.38)"/><line class="cls-1" x1="184.38" y1="111.57" x2="83.05" y2="212.9"/><polyline class="cls-1" points="156.85 117.25 157.44 138.32 178.26 138.66"/><polyline class="cls-1" points="127.72 130.85 127.98 167.53 164.97 168.09"/></svg>